<svg xmlns="http://www.w3.org/2000/svg" viewBox="0 0 752 112" width="752" height="112" shape-rendering="crispEdges" role="img" aria-label="rec2notes">
<rect x="256" y="0" width="8" height="16" fill="#6e6034"/>
<rect x="264" y="0" width="48" height="16" fill="#ffd75f"/>
<rect x="528" y="0" width="8" height="16" fill="#6e6034"/>
<rect x="536" y="0" width="16" height="16" fill="#ffd75f"/>
<rect x="248" y="16" width="8" height="16" fill="#6e5034"/>
<rect x="256" y="16" width="16" height="16" fill="#ffaf5f"/>
<rect x="296" y="16" width="8" height="16" fill="#6e5034"/>
<rect x="304" y="16" width="16" height="16" fill="#ffaf5f"/>
<rect x="528" y="16" width="8" height="16" fill="#6e5034"/>
<rect x="536" y="16" width="16" height="16" fill="#ffaf5f"/>
<rect x="0" y="32" width="8" height="16" fill="#6e4034"/>
<rect x="8" y="32" width="16" height="16" fill="#ff875f"/>
<rect x="24" y="32" width="8" height="16" fill="#6e4034"/>
<rect x="32" y="32" width="32" height="16" fill="#ff875f"/>
<rect x="80" y="32" width="8" height="16" fill="#6e4034"/>
<rect x="88" y="32" width="56" height="16" fill="#ff875f"/>
<rect x="168" y="32" width="8" height="16" fill="#6e4034"/>
<rect x="176" y="32" width="56" height="16" fill="#ff875f"/>
<rect x="296" y="32" width="8" height="16" fill="#6e4034"/>
<rect x="304" y="32" width="16" height="16" fill="#ff875f"/>
<rect x="328" y="32" width="8" height="16" fill="#6e4034"/>
<rect x="336" y="32" width="64" height="16" fill="#ff875f"/>
<rect x="424" y="32" width="8" height="16" fill="#6e4034"/>
<rect x="432" y="32" width="56" height="16" fill="#ff875f"/>
<rect x="504" y="32" width="8" height="16" fill="#6e4034"/>
<rect x="512" y="32" width="64" height="16" fill="#ff875f"/>
<rect x="592" y="32" width="8" height="16" fill="#6e4034"/>
<rect x="600" y="32" width="56" height="16" fill="#ff875f"/>
<rect x="680" y="32" width="8" height="16" fill="#6e4034"/>
<rect x="688" y="32" width="56" height="16" fill="#ff875f"/>
<rect x="0" y="48" width="8" height="16" fill="#6e383c"/>
<rect x="8" y="48" width="24" height="16" fill="#ff7373"/>
<rect x="72" y="48" width="8" height="16" fill="#6e383c"/>
<rect x="80" y="48" width="16" height="16" fill="#ff7373"/>
<rect x="128" y="48" width="8" height="16" fill="#6e383c"/>
<rect x="136" y="48" width="16" height="16" fill="#ff7373"/>
<rect x="160" y="48" width="8" height="16" fill="#6e383c"/>
<rect x="168" y="48" width="16" height="16" fill="#ff7373"/>
<rect x="216" y="48" width="8" height="16" fill="#6e383c"/>
<rect x="224" y="48" width="16" height="16" fill="#ff7373"/>
<rect x="264" y="48" width="8" height="16" fill="#6e383c"/>
<rect x="272" y="48" width="40" height="16" fill="#ff7373"/>
<rect x="328" y="48" width="8" height="16" fill="#6e383c"/>
<rect x="336" y="48" width="16" height="16" fill="#ff7373"/>
<rect x="384" y="48" width="8" height="16" fill="#6e383c"/>
<rect x="392" y="48" width="16" height="16" fill="#ff7373"/>
<rect x="416" y="48" width="8" height="16" fill="#6e383c"/>
<rect x="424" y="48" width="16" height="16" fill="#ff7373"/>
<rect x="472" y="48" width="8" height="16" fill="#6e383c"/>
<rect x="480" y="48" width="16" height="16" fill="#ff7373"/>
<rect x="528" y="48" width="8" height="16" fill="#6e383c"/>
<rect x="536" y="48" width="16" height="16" fill="#ff7373"/>
<rect x="584" y="48" width="8" height="16" fill="#6e383c"/>
<rect x="592" y="48" width="16" height="16" fill="#ff7373"/>
<rect x="640" y="48" width="8" height="16" fill="#6e383c"/>
<rect x="648" y="48" width="16" height="16" fill="#ff7373"/>
<rect x="672" y="48" width="8" height="16" fill="#6e383c"/>
<rect x="680" y="48" width="16" height="16" fill="#ff7373"/>
<rect x="0" y="64" width="8" height="16" fill="#6e3044"/>
<rect x="8" y="64" width="16" height="16" fill="#ff5f87"/>
<rect x="72" y="64" width="8" height="16" fill="#6e3044"/>
<rect x="80" y="64" width="72" height="16" fill="#ff5f87"/>
<rect x="160" y="64" width="8" height="16" fill="#6e3044"/>
<rect x="168" y="64" width="16" height="16" fill="#ff5f87"/>
<rect x="256" y="64" width="8" height="16" fill="#6e3044"/>
<rect x="264" y="64" width="16" height="16" fill="#ff5f87"/>
<rect x="328" y="64" width="8" height="16" fill="#6e3044"/>
<rect x="336" y="64" width="16" height="16" fill="#ff5f87"/>
<rect x="384" y="64" width="8" height="16" fill="#6e3044"/>
<rect x="392" y="64" width="16" height="16" fill="#ff5f87"/>
<rect x="416" y="64" width="8" height="16" fill="#6e3044"/>
<rect x="424" y="64" width="16" height="16" fill="#ff5f87"/>
<rect x="472" y="64" width="8" height="16" fill="#6e3044"/>
<rect x="480" y="64" width="16" height="16" fill="#ff5f87"/>
<rect x="528" y="64" width="8" height="16" fill="#6e3044"/>
<rect x="536" y="64" width="16" height="16" fill="#ff5f87"/>
<rect x="584" y="64" width="8" height="16" fill="#6e3044"/>
<rect x="592" y="64" width="72" height="16" fill="#ff5f87"/>
<rect x="680" y="64" width="8" height="16" fill="#6e3044"/>
<rect x="688" y="64" width="56" height="16" fill="#ff5f87"/>
<rect x="0" y="80" width="8" height="16" fill="#663054"/>
<rect x="8" y="80" width="16" height="16" fill="#eb5faf"/>
<rect x="72" y="80" width="8" height="16" fill="#663054"/>
<rect x="80" y="80" width="16" height="16" fill="#eb5faf"/>
<rect x="160" y="80" width="8" height="16" fill="#663054"/>
<rect x="168" y="80" width="16" height="16" fill="#eb5faf"/>
<rect x="216" y="80" width="8" height="16" fill="#663054"/>
<rect x="224" y="80" width="16" height="16" fill="#eb5faf"/>
<rect x="248" y="80" width="8" height="16" fill="#663054"/>
<rect x="256" y="80" width="16" height="16" fill="#eb5faf"/>
<rect x="328" y="80" width="8" height="16" fill="#663054"/>
<rect x="336" y="80" width="16" height="16" fill="#eb5faf"/>
<rect x="384" y="80" width="8" height="16" fill="#663054"/>
<rect x="392" y="80" width="16" height="16" fill="#eb5faf"/>
<rect x="416" y="80" width="8" height="16" fill="#663054"/>
<rect x="424" y="80" width="16" height="16" fill="#eb5faf"/>
<rect x="472" y="80" width="8" height="16" fill="#663054"/>
<rect x="480" y="80" width="16" height="16" fill="#eb5faf"/>
<rect x="528" y="80" width="8" height="16" fill="#663054"/>
<rect x="536" y="80" width="16" height="16" fill="#eb5faf"/>
<rect x="584" y="80" width="8" height="16" fill="#663054"/>
<rect x="592" y="80" width="16" height="16" fill="#eb5faf"/>
<rect x="728" y="80" width="8" height="16" fill="#663054"/>
<rect x="736" y="80" width="16" height="16" fill="#eb5faf"/>
<rect x="0" y="96" width="8" height="16" fill="#5e3064"/>
<rect x="8" y="96" width="16" height="16" fill="#d75fd7"/>
<rect x="80" y="96" width="8" height="16" fill="#5e3064"/>
<rect x="88" y="96" width="56" height="16" fill="#d75fd7"/>
<rect x="168" y="96" width="8" height="16" fill="#5e3064"/>
<rect x="176" y="96" width="56" height="16" fill="#d75fd7"/>
<rect x="248" y="96" width="8" height="16" fill="#5e3064"/>
<rect x="256" y="96" width="64" height="16" fill="#d75fd7"/>
<rect x="328" y="96" width="8" height="16" fill="#5e3064"/>
<rect x="336" y="96" width="16" height="16" fill="#d75fd7"/>
<rect x="384" y="96" width="8" height="16" fill="#5e3064"/>
<rect x="392" y="96" width="16" height="16" fill="#d75fd7"/>
<rect x="424" y="96" width="8" height="16" fill="#5e3064"/>
<rect x="432" y="96" width="56" height="16" fill="#d75fd7"/>
<rect x="536" y="96" width="8" height="16" fill="#5e3064"/>
<rect x="544" y="96" width="32" height="16" fill="#d75fd7"/>
<rect x="592" y="96" width="8" height="16" fill="#5e3064"/>
<rect x="600" y="96" width="56" height="16" fill="#d75fd7"/>
<rect x="680" y="96" width="8" height="16" fill="#5e3064"/>
<rect x="688" y="96" width="56" height="16" fill="#d75fd7"/>
</svg>
